<svg xmlns="http://www.w3.org/2000/svg" width="1040" height="590" viewBox="0 0 1040 590" role="img" aria-labelledby="title desc" lang="en">
<title id="title">PDF · Document tasks</title><desc id="desc">Identify the task and document type, select creation, extraction, editing, forms or OCR, process the document and validate the output.</desc>
<defs><marker id="arrow" viewBox="0 0 10 10" refX="9" refY="5" markerWidth="7" markerHeight="7" orient="auto-start-reverse"><path d="M 0 0 L 10 5 L 0 10 z" fill="#6c8599"/></marker></defs>
<rect width="1040" height="590" rx="20" fill="#fff"/>
<g font-family="Segoe UI, Microsoft YaHei, PingFang SC, sans-serif"><text x="44" y="49" text-anchor="start" font-size="27" font-weight="650" fill="#18344c">PDF · Document tasks</text>
<path d="M520 165 V205 H130 V245" fill="none" stroke="#6c8599" stroke-width="2" stroke-linejoin="round" marker-end="url(#arrow)"/>
<path d="M130 345 V385 H520 V420" fill="none" stroke="#6c8599" stroke-width="2" stroke-linejoin="round" marker-end="url(#arrow)"/>
<path d="M520 165 V205 H325 V245" fill="none" stroke="#6c8599" stroke-width="2" stroke-linejoin="round" marker-end="url(#arrow)"/>
<path d="M325 345 V385 H520 V420" fill="none" stroke="#6c8599" stroke-width="2" stroke-linejoin="round" marker-end="url(#arrow)"/>
<path d="M520 165 V205 H520 V245" fill="none" stroke="#6c8599" stroke-width="2" stroke-linejoin="round" marker-end="url(#arrow)"/>
<path d="M520 345 V385 H520 V420" fill="none" stroke="#6c8599" stroke-width="2" stroke-linejoin="round" marker-end="url(#arrow)"/>
<path d="M520 165 V205 H715 V245" fill="none" stroke="#6c8599" stroke-width="2" stroke-linejoin="round" marker-end="url(#arrow)"/>
<path d="M715 345 V385 H520 V420" fill="none" stroke="#6c8599" stroke-width="2" stroke-linejoin="round" marker-end="url(#arrow)"/>
<path d="M520 165 V205 H910 V245" fill="none" stroke="#6c8599" stroke-width="2" stroke-linejoin="round" marker-end="url(#arrow)"/>
<path d="M910 345 V385 H520 V420" fill="none" stroke="#6c8599" stroke-width="2" stroke-linejoin="round" marker-end="url(#arrow)"/>
<path d="M520 495 V525" fill="none" stroke="#6c8599" stroke-width="2" stroke-linejoin="round" marker-end="url(#arrow)"/>
<g data-flow-box="true">
<rect x="250" y="90" width="540" height="75" rx="14" fill="#edf3fa" stroke="#b6c9df" stroke-width="1.5"/>
<text x="520" y="134.5" text-anchor="middle" font-size="21" font-weight="500" fill="#243b53">Identify task and document type</text>
</g>
<g data-flow-box="true">
<rect x="43" y="245" width="174" height="100" rx="14" fill="#edf3fa" stroke="#b6c9df" stroke-width="1.5"/>
<text x="130" y="288" text-anchor="middle" font-size="21" font-weight="500" fill="#243b53">Create</text>
<text x="130" y="316" text-anchor="middle" font-size="21" font-weight="500" fill="#243b53">a document</text>
</g>
<g data-flow-box="true">
<rect x="238" y="245" width="174" height="100" rx="14" fill="#edf3fa" stroke="#b6c9df" stroke-width="1.5"/>
<text x="325" y="288" text-anchor="middle" font-size="21" font-weight="500" fill="#243b53">Extract</text>
<text x="325" y="316" text-anchor="middle" font-size="21" font-weight="500" fill="#243b53">text / tables</text>
</g>
<g data-flow-box="true">
<rect x="433" y="245" width="174" height="100" rx="14" fill="#edf3fa" stroke="#b6c9df" stroke-width="1.5"/>
<text x="520" y="288" text-anchor="middle" font-size="21" font-weight="500" fill="#243b53">Merge / edit</text>
<text x="520" y="316" text-anchor="middle" font-size="21" font-weight="500" fill="#243b53">pages</text>
</g>
<g data-flow-box="true">
<rect x="628" y="245" width="174" height="100" rx="14" fill="#edf3fa" stroke="#b6c9df" stroke-width="1.5"/>
<text x="715" y="288" text-anchor="middle" font-size="21" font-weight="500" fill="#243b53">Fill</text>
<text x="715" y="316" text-anchor="middle" font-size="21" font-weight="500" fill="#243b53">forms</text>
</g>
<g data-flow-box="true">
<rect x="823" y="245" width="174" height="100" rx="14" fill="#edf3fa" stroke="#b6c9df" stroke-width="1.5"/>
<text x="910" y="288" text-anchor="middle" font-size="21" font-weight="500" fill="#243b53">OCR</text>
<text x="910" y="316" text-anchor="middle" font-size="21" font-weight="500" fill="#243b53">scanned pages</text>
</g>
<g data-flow-box="true">
<rect x="250" y="420" width="540" height="75" rx="14" fill="#e3f3ee" stroke="#8eb9aa" stroke-width="1.5"/>
<text x="520" y="464.5" text-anchor="middle" font-size="21" font-weight="500" fill="#243b53">Process and validate the output</text>
</g>
<g data-flow-box="true">
<rect x="250" y="525" width="540" height="45" rx="14" fill="#e3f3ee" stroke="#8eb9aa" stroke-width="1.5"/>
<text x="520" y="554.5" text-anchor="middle" font-size="21" font-weight="500" fill="#243b53">Deliver usable files or extracted data</text>
</g>
</g></svg>
